<svg width="86" height="27" viewBox="0 0 86 27" fill="none" xmlns="http://www.w3.org/2000/svg">
<path d="M18.252 3.81593C18.3 4.79993 18.36 5.91593 18.432 7.16393C18.528 8.41193 18.624 9.70793 18.72 11.0519C18.84 12.3719 18.96 13.6919 19.08 15.0119C19.2 16.3319 19.32 17.5559 19.44 18.6839C20.064 17.4599 20.7 16.1399 21.348 14.7239C21.996 13.3079 22.644 11.8439 23.292 10.3319C23.94 8.81993 24.576 7.28393 25.2 5.72393C25.848 4.16393 26.46 2.63993 27.036 1.15193H32.976C31.104 5.71193 29.196 10.0559 27.252 14.1839C25.308 18.2879 23.22 22.2599 20.988 26.0999H15.732C15.54 24.7799 15.36 23.5199 15.192 22.3199C15.048 21.0959 14.904 19.8959 14.76 18.7199C14.64 17.5439 14.52 16.3559 14.4 15.1559C14.304 13.9559 14.208 12.7079 14.112 11.4119C12.744 13.9559 11.388 16.4519 10.044 18.8999C8.724 21.3239 7.308 23.7239 5.796 26.0999H0.54C0.348 23.8679 0.204 21.6599 0.108 19.4759C0.036 17.2919 0 15.0719 0 12.8159C0 10.8719 0.036 8.93993 0.108 7.01993C0.18 5.07593 0.276 3.11993 0.396 1.15193H6.048C5.928 3.26393 5.808 5.33993 5.688 7.37993C5.592 9.39593 5.544 11.4959 5.544 13.6799C5.544 14.4959 5.544 15.3239 5.544 16.1639C5.544 17.0039 5.568 17.8439 5.616 18.6839C6.288 17.5079 6.996 16.2599 7.74 14.9399C8.484 13.6199 9.216 12.2999 9.936 10.9799C10.656 9.65993 11.34 8.38793 11.988 7.16393C12.636 5.91593 13.188 4.79993 13.644 3.81593H18.252Z" fill="white"/>
<path d="M30.7997 20.4479C30.7997 18.6479 31.2677 17.0999 32.2037 15.8039C33.1397 14.4839 34.6517 13.3559 36.7397 12.4199L37.3517 12.1319C36.8717 11.3399 36.5117 10.5599 36.2717 9.79193C36.0557 8.99993 35.9477 8.23193 35.9477 7.48793C35.9477 6.52793 36.1277 5.62793 36.4877 4.78793C36.8717 3.92393 37.4117 3.19193 38.1077 2.59193C38.8277 1.96793 39.6797 1.47593 40.6637 1.11593C41.6717 0.755929 42.7997 0.575928 44.0477 0.575928C45.0797 0.575928 45.9917 0.719928 46.7837 1.00793C47.5757 1.27193 48.2237 1.63193 48.7277 2.08793C49.2557 2.54393 49.6517 3.08393 49.9157 3.70793C50.1797 4.30793 50.3117 4.94393 50.3117 5.61593C50.3117 6.21593 50.2037 6.83993 49.9877 7.48793C49.7717 8.13593 49.4477 8.77193 49.0157 9.39593C48.6077 10.0199 48.0797 10.6079 47.4317 11.1599C46.7837 11.7119 46.0277 12.1799 45.1637 12.5639L43.8317 13.1759L46.8557 17.2079C47.4557 16.2239 48.0077 15.0119 48.5117 13.5719L53.2277 14.1839C52.1957 16.7999 50.9837 19.0079 49.5917 20.8079C50.2157 21.6959 50.7677 22.5839 51.2477 23.4719C51.7517 24.3599 52.2077 25.2359 52.6157 26.0999H47.1797C47.0357 25.7879 46.8677 25.4639 46.6757 25.1279C46.5077 24.7919 46.3277 24.4439 46.1357 24.0839C43.8557 25.6439 41.2517 26.4239 38.3237 26.4239C37.0517 26.4239 35.9357 26.2559 34.9757 25.9199C34.0397 25.5839 33.2597 25.1399 32.6357 24.5879C32.0117 24.0119 31.5437 23.3759 31.2317 22.6799C30.9437 21.9599 30.7997 21.2159 30.7997 20.4479ZM39.0077 22.2479C39.6317 22.2479 40.3517 22.1519 41.1677 21.9599C41.9837 21.7439 42.8477 21.3239 43.7597 20.6999L39.5477 15.1559L39.0077 15.4079C37.9997 15.8639 37.2677 16.4639 36.8117 17.2079C36.3557 17.9519 36.1277 18.6839 36.1277 19.4039C36.1277 20.1719 36.3677 20.8439 36.8477 21.4199C37.3517 21.9719 38.0717 22.2479 39.0077 22.2479ZM40.6997 7.63193C40.6997 8.30393 41.0117 9.15593 41.6357 10.1879L42.0677 10.0079C43.2197 9.47993 44.1077 8.91593 44.7317 8.31593C45.3797 7.69193 45.7037 6.95993 45.7037 6.11993C45.7037 5.66393 45.5357 5.26793 45.1997 4.93193C44.8637 4.57193 44.3357 4.39193 43.6157 4.39193C42.8957 4.39193 42.2237 4.66793 41.5997 5.21993C40.9997 5.74793 40.6997 6.55193 40.6997 7.63193Z" fill="white"/>
<path d="M67.4699 1.15193C67.6139 1.79993 67.7939 2.72393 68.0099 3.92393C68.2499 5.09993 68.4899 6.40793 68.7299 7.84793C68.9939 9.26393 69.2579 10.7279 69.5219 12.2399C69.7859 13.7279 70.0259 15.0959 70.2419 16.3439C71.0579 15.0959 71.9459 13.7519 72.9059 12.3119C73.8659 10.8719 74.8139 9.45593 75.7499 8.06393C76.6859 6.67193 77.5739 5.37593 78.4139 4.17593C79.2539 2.95193 79.9739 1.94393 80.5739 1.15193H85.5419C85.3739 2.80793 85.1459 4.66793 84.8579 6.73193C84.5939 8.79593 84.2819 10.9319 83.9219 13.1399C83.5859 15.3479 83.2259 17.5679 82.8419 19.7999C82.4579 22.0319 82.0739 24.1319 81.6899 26.0999H76.2179C76.7219 23.6519 77.2499 21.0119 77.8019 18.1799C78.3779 15.3239 78.9059 12.4439 79.3859 9.53993C78.7619 10.5239 78.0659 11.6279 77.2979 12.8519C76.5299 14.0519 75.7619 15.2759 74.9939 16.5239C74.2259 17.7479 73.4819 18.9239 72.7619 20.0519C72.0419 21.1799 71.4179 22.1399 70.8899 22.9319H66.7859C66.6659 22.2119 66.5219 21.2999 66.3539 20.1959C66.1859 19.0919 65.9939 17.9279 65.7779 16.7039C65.5859 15.4559 65.3819 14.2079 65.1659 12.9599C64.9499 11.6879 64.7459 10.5479 64.5539 9.53993C63.6179 12.4439 62.7659 15.3239 61.9979 18.1799C61.2539 21.0119 60.5579 23.6519 59.9099 26.0999H54.4739C55.0259 24.1319 55.6259 22.0319 56.2739 19.7999C56.9459 17.5679 57.6299 15.3479 58.3259 13.1399C59.0459 10.9079 59.7539 8.75993 60.4499 6.69593C61.1459 4.63193 61.8059 2.78393 62.4299 1.15193H67.4699Z" fill="white"/>
</svg>
