<svg width="12" height="8" viewBox="0 0 12 8" fill="none" xmlns="http://www.w3.org/2000/svg">
<path d="M1.50582 0.691993C1.70108 0.496731 2.01767 0.496731 2.21293 0.691993L7.16268 5.64174C7.35794 5.837 7.35794 6.15359 7.16268 6.34885L6.45557 7.05595C6.26031 7.25122 5.94372 7.25122 5.74846 7.05595L0.798715 2.10621C0.603453 1.91094 0.603453 1.59436 0.798715 1.3991L1.50582 0.691993Z" fill="white"/>
<path d="M5.06351 6.34885C4.86825 6.15359 4.86825 5.83701 5.06351 5.64175L10.0133 0.691999C10.2085 0.496737 10.5251 0.496736 10.7204 0.691999L11.4275 1.39911C11.6227 1.59437 11.6227 1.91095 11.4275 2.10621L6.47773 7.05596C6.28247 7.25122 5.96588 7.25122 5.77062 7.05596L5.06351 6.34885Z" fill="white"/>
</svg>
